<svg xmlns="http://www.w3.org/2000/svg" width="600" height="600" viewBox="0 0 600 600" fill="none">
  <defs>
    <radialGradient id="circuitGlow1" cx="50%" cy="50%" r="50%">
      <stop offset="0%" stop-color="#38bdf8" stop-opacity="0.8"/>
      <stop offset="100%" stop-color="#38bdf8" stop-opacity="0"/>
    </radialGradient>
    <radialGradient id="circuitGlow2" cx="50%" cy="50%" r="50%">
      <stop offset="0%" stop-color="#818cf8" stop-opacity="0.8"/>
      <stop offset="100%" stop-color="#818cf8" stop-opacity="0"/>
    </radialGradient>
    <radialGradient id="brainNode" cx="50%" cy="50%" r="50%">
      <stop offset="0%" stop-color="#2dd4bf" stop-opacity="0.9"/>
      <stop offset="100%" stop-color="#0d9488" stop-opacity="0"/>
    </radialGradient>
  </defs>

  <!-- Central Microprocessor Unit -->
  <rect x="250" y="250" width="100" height="100" rx="16" stroke="#3b82f6" stroke-width="2" stroke-dasharray="6 4" fill="none" opacity="0.6"/>
  <rect x="270" y="270" width="60" height="60" rx="8" stroke="#8b5cf6" stroke-width="2.5" fill="none" opacity="0.8"/>
  <circle cx="300" cy="300" r="16" fill="url(#circuitGlow1)"/>
  <circle cx="300" cy="300" r="6" fill="#38bdf8"/>

  <!-- Core Circuit Bus Lines -->
  <!-- Top Lines -->
  <path d="M270 250 V180 L230 140 H120 L80 100 H20" stroke="#3b82f6" stroke-width="2" stroke-linecap="round" opacity="0.75"/>
  <circle cx="230" cy="140" r="4" fill="#60a5fa"/>
  <circle cx="80" cy="100" r="5" fill="#38bdf8"/>
  <circle cx="20" cy="100" r="4" fill="#93c5fd"/>

  <path d="M300 250 V150 L340 110 H440 L480 70 H560" stroke="#8b5cf6" stroke-width="2" stroke-linecap="round" opacity="0.75"/>
  <circle cx="340" cy="110" r="4" fill="#a78bfa"/>
  <circle cx="480" cy="70" r="5" fill="#c084fc"/>
  <circle cx="560" cy="70" r="4" fill="#818cf8"/>

  <path d="M330 250 V190 L380 140 H500" stroke="#0ea5e9" stroke-width="1.75" stroke-linecap="round" opacity="0.7"/>
  <circle cx="380" cy="140" r="4" fill="#38bdf8"/>
  <circle cx="500" cy="140" r="4" fill="#0284c7"/>

  <!-- Right Lines -->
  <path d="M350 270 H430 L470 310 V420 L510 460 H580" stroke="#6366f1" stroke-width="2" stroke-linecap="round" opacity="0.75"/>
  <circle cx="470" cy="310" r="4.5" fill="#818cf8"/>
  <circle cx="510" cy="460" r="4" fill="#6366f1"/>

  <path d="M350 300 H460 L510 250 H590" stroke="#06b6d4" stroke-width="2" stroke-linecap="round" opacity="0.75"/>
  <circle cx="460" cy="300" r="5" fill="#22d3ee"/>
  <circle cx="510" cy="250" r="4" fill="#0891b2"/>

  <path d="M350 330 H410 L450 370 H540 L570 400" stroke="#10b981" stroke-width="1.75" stroke-linecap="round" opacity="0.7"/>
  <circle cx="450" cy="370" r="4" fill="#34d399"/>
  <circle cx="540" cy="370" r="4" fill="#059669"/>

  <!-- Bottom Lines -->
  <path d="M330 350 V430 L290 470 H180 L140 510 H40" stroke="#3b82f6" stroke-width="2" stroke-linecap="round" opacity="0.75"/>
  <circle cx="290" cy="470" r="4" fill="#60a5fa"/>
  <circle cx="140" cy="510" r="5" fill="#38bdf8"/>
  <circle cx="40" cy="510" r="4" fill="#2563eb"/>

  <path d="M300 350 V450 L350 500 H480 L520 540 H570" stroke="#8b5cf6" stroke-width="2" stroke-linecap="round" opacity="0.75"/>
  <circle cx="350" cy="500" r="4" fill="#a78bfa"/>
  <circle cx="480" cy="500" r="4" fill="#c084fc"/>

  <path d="M270 350 V420 L220 470 H120 L80 510 H20" stroke="#14b8a6" stroke-width="1.75" stroke-linecap="round" opacity="0.7"/>
  <circle cx="220" cy="470" r="4" fill="#2dd4bf"/>
  <circle cx="80" cy="510" r="4" fill="#0d9488"/>

  <!-- Left Lines -->
  <path d="M250 270 H170 L130 230 V120 L90 80 H20" stroke="#6366f1" stroke-width="2" stroke-linecap="round" opacity="0.75"/>
  <circle cx="170" cy="270" r="4" fill="#818cf8"/>
  <circle cx="130" cy="230" r="5" fill="#a5b4fc"/>

  <path d="M250 300 H140 L90 350 H10" stroke="#0ea5e9" stroke-width="2" stroke-linecap="round" opacity="0.75"/>
  <circle cx="140" cy="300" r="5" fill="#38bdf8"/>
  <circle cx="90" cy="350" r="4" fill="#0284c7"/>

  <path d="M250 330 H180 L140 370 H60 L30 400" stroke="#8b5cf6" stroke-width="1.75" stroke-linecap="round" opacity="0.7"/>
  <circle cx="140" cy="370" r="4" fill="#c084fc"/>

  <!-- Secondary Neural Synaptic Nodes & Bridges -->
  <circle cx="120" cy="140" r="14" fill="url(#circuitGlow2)"/>
  <circle cx="120" cy="140" r="5" fill="#818cf8"/>

  <circle cx="440" cy="110" r="14" fill="url(#circuitGlow1)"/>
  <circle cx="440" cy="110" r="5" fill="#38bdf8"/>

  <circle cx="480" cy="500" r="14" fill="url(#circuitGlow2)"/>
  <circle cx="480" cy="500" r="5" fill="#a78bfa"/>

  <circle cx="180" cy="470" r="14" fill="url(#brainNode)"/>
  <circle cx="180" cy="470" r="5" fill="#14b8a6"/>

  <!-- Geometric Logic Gates -->
  <polygon points="170,220 185,230 170,240" fill="#38bdf8" opacity="0.6"/>
  <polygon points="420,360 435,370 420,380" fill="#818cf8" opacity="0.6"/>
  <polygon points="340,490 350,505 330,505" fill="#2dd4bf" opacity="0.6"/>
  <polygon points="220,130 230,145 210,145" fill="#60a5fa" opacity="0.6"/>

  <!-- Hexagonal Synaptic Pods -->
  <polygon points="495,290 515,290 525,307 515,324 495,324 485,307" stroke="#3b82f6" stroke-width="1.5" fill="none" opacity="0.5"/>
  <polygon points="95,440 115,440 125,457 115,474 95,474 85,457" stroke="#8b5cf6" stroke-width="1.5" fill="none" opacity="0.5"/>
  <polygon points="475,90 495,90 505,107 495,124 475,124 465,107" stroke="#14b8a6" stroke-width="1.5" fill="none" opacity="0.5"/>
</svg>
